<svg width="1050" height="91" viewBox="0 0 1050 91" fill="none" xmlns="http://www.w3.org/2000/svg">
<g filter="url(#filter0_dii_1_1411)">
<path d="M1043.07 16.0711C1044.95 17.9464 1046 20.49 1046 23.1421V59.8579C1046 62.51 1044.95 65.0536 1043.07 66.9289L1029.93 80.0711C1028.05 81.9464 1025.51 83 1022.86 83H27.1422C24.49 83 21.9464 81.9464 20.0711 80.0711L6.92893 66.9289C5.05357 65.0536 4 62.51 4 59.8579V23.1421C4 20.49 5.05357 17.9464 6.92893 16.0711L20.0711 2.92893C21.9464 1.05357 24.49 0 27.1421 0H1022.86C1025.51 0 1028.05 1.05357 1029.93 2.92893L1043.07 16.0711Z" fill="#CED7FF" fill-opacity="0.07" shape-rendering="crispEdges"/>
</g>
<defs>
<filter id="filter0_dii_1_1411" x="0" y="0" width="1050" height="91" filterUnits="userSpaceOnUse" color-interpolation-filters="sRGB">
<feFlood flood-opacity="0" result="BackgroundImageFix"/>
<feColorMatrix in="SourceAlpha" type="matrix" values="0 0 0 0 0 0 0 0 0 0 0 0 0 0 0 0 0 0 127 0" result="hardAlpha"/>
<feOffset dy="4"/>
<feGaussianBlur stdDeviation="2"/>
<feComposite in2="hardAlpha" operator="out"/>
<feColorMatrix type="matrix" values="0 0 0 0 0 0 0 0 0 0 0 0 0 0 0 0 0 0 0.12 0"/>
<feBlend mode="normal" in2="BackgroundImageFix" result="effect1_dropShadow_1_1411"/>
<feBlend mode="normal" in="SourceGraphic" in2="effect1_dropShadow_1_1411" result="shape"/>
<feColorMatrix in="SourceAlpha" type="matrix" values="0 0 0 0 0 0 0 0 0 0 0 0 0 0 0 0 0 0 127 0" result="hardAlpha"/>
<feOffset dy="4"/>
<feGaussianBlur stdDeviation="7.7"/>
<feComposite in2="hardAlpha" operator="arithmetic" k2="-1" k3="1"/>
<feColorMatrix type="matrix" values="0 0 0 0 1 0 0 0 0 1 0 0 0 0 1 0 0 0 0.23 0"/>
<feBlend mode="soft-light" in2="shape" result="effect2_innerShadow_1_1411"/>
<feColorMatrix in="SourceAlpha" type="matrix" values="0 0 0 0 0 0 0 0 0 0 0 0 0 0 0 0 0 0 127 0" result="hardAlpha"/>
<feOffset dy="1"/>
<feComposite in2="hardAlpha" operator="arithmetic" k2="-1" k3="1"/>
<feColorMatrix type="matrix" values="0 0 0 0 1 0 0 0 0 1 0 0 0 0 1 0 0 0 0.03 0"/>
<feBlend mode="normal" in2="effect2_innerShadow_1_1411" result="effect3_innerShadow_1_1411"/>
</filter>
</defs>
</svg>
