<svg width="18" height="18" viewBox="0 0 18 18" fill="none" xmlns="http://www.w3.org/2000/svg">
<path d="M10.6667 17H7.33339M14.0001 6.16667C14.0001 4.84058 13.4733 3.56881 12.5356 2.63113C11.5979 1.69345 10.3261 1.16667 9.00006 1.16667C7.67397 1.16667 6.4022 1.69345 5.46452 2.63113C4.52684 3.56881 4.00006 4.84058 4.00006 6.16667C4.00006 8.74182 3.35045 10.505 2.62478 11.6712C2.01266 12.6549 1.7066 13.1468 1.71783 13.284C1.73025 13.4359 1.76244 13.4938 1.88487 13.5846C1.99544 13.6667 2.49388 13.6667 3.49077 13.6667H14.5093C15.5062 13.6667 16.0047 13.6667 16.1152 13.5846C16.2377 13.4938 16.2699 13.4359 16.2823 13.284C16.2935 13.1468 15.9875 12.6549 15.3753 11.6712C14.6497 10.505 14.0001 8.74182 14.0001 6.16667Z" stroke="#484B66" stroke-width="1.66667" stroke-linecap="round" stroke-linejoin="round"/>
</svg>
