<svg width="18" height="19" viewBox="0 0 18 19" fill="none" xmlns="http://www.w3.org/2000/svg">
<path d="M3.75 11.75C3.05109 11.75 2.70163 11.75 2.42597 11.6358C2.05843 11.4836 1.76642 11.1916 1.61418 10.824C1.5 10.5484 1.5 10.1989 1.5 9.5V4.4C1.5 3.55992 1.5 3.13988 1.66349 2.81901C1.8073 2.53677 2.03677 2.3073 2.31901 2.16349C2.63988 2 3.05992 2 3.9 2H9C9.69891 2 10.0484 2 10.324 2.11418C10.6916 2.26642 10.9836 2.55843 11.1358 2.92597C11.25 3.20163 11.25 3.55109 11.25 4.25M9.15 17H14.1C14.9401 17 15.3601 17 15.681 16.8365C15.9632 16.6927 16.1927 16.4632 16.3365 16.181C16.5 15.8601 16.5 15.4401 16.5 14.6V9.65C16.5 8.80992 16.5 8.38988 16.3365 8.06901C16.1927 7.78677 15.9632 7.5573 15.681 7.41349C15.3601 7.25 14.9401 7.25 14.1 7.25H9.15C8.30992 7.25 7.88988 7.25 7.56901 7.41349C7.28677 7.5573 7.0573 7.78677 6.91349 8.06901C6.75 8.38988 6.75 8.80992 6.75 9.65V14.6C6.75 15.4401 6.75 15.8601 6.91349 16.181C7.0573 16.4632 7.28677 16.6927 7.56901 16.8365C7.88988 17 8.30992 17 9.15 17Z" stroke="#10F9FE" stroke-width="1.66667" stroke-linecap="round" stroke-linejoin="round"/>
</svg>
