<svg width="20" height="20" viewBox="0 0 20 20" fill="none" xmlns="http://www.w3.org/2000/svg">
<g clip-path="url(#clip0_8_303)">
<path d="M6.66663 11.6667C6.66663 11.6667 7.91663 13.3334 9.99996 13.3334C12.0833 13.3334 13.3333 11.6667 13.3333 11.6667M12.5 7.50002H12.5083M7.49996 7.50002H7.50829M18.3333 10C18.3333 14.6024 14.6023 18.3334 9.99996 18.3334C5.39759 18.3334 1.66663 14.6024 1.66663 10C1.66663 5.39765 5.39759 1.66669 9.99996 1.66669C14.6023 1.66669 18.3333 5.39765 18.3333 10ZM12.9166 7.50002C12.9166 7.73014 12.7301 7.91669 12.5 7.91669C12.2698 7.91669 12.0833 7.73014 12.0833 7.50002C12.0833 7.2699 12.2698 7.08335 12.5 7.08335C12.7301 7.08335 12.9166 7.2699 12.9166 7.50002ZM7.91663 7.50002C7.91663 7.73014 7.73008 7.91669 7.49996 7.91669C7.26984 7.91669 7.08329 7.73014 7.08329 7.50002C7.08329 7.2699 7.26984 7.08335 7.49996 7.08335C7.73008 7.08335 7.91663 7.2699 7.91663 7.50002Z" stroke="#484B66" stroke-width="1.66667" stroke-linecap="round" stroke-linejoin="round"/>
</g>
<defs>
<clipPath id="clip0_8_303">
<rect width="20" height="20" fill="white"/>
</clipPath>
</defs>
</svg>
