<svg width="15" height="15" viewBox="0 0 15 15" fill="none" xmlns="http://www.w3.org/2000/svg">
<path d="M0.0523834 13.6453L1.7785 11.9192L3.13256 13.2733L1.40645 14.9994L0.0523834 13.6453Z" fill="#484B66"/>
<path d="M12.2019 8.87315L11.5248 9.55025L10.3641 8.38953L8.25354 10.3418L9.49339 11.5817L8.81626 12.2588L10.1705 13.613L13.5562 10.2274L12.2019 8.87315Z" fill="#484B66"/>
<path d="M11.8621 13.2745L13.2162 11.9204L14.9423 13.6466L13.5882 15.0006L11.8621 13.2745Z" fill="#484B66"/>
<path d="M6.82238 4.84661L1.97537 -0.000366211L1.54799 4.23087L4.7353 6.93369L6.82238 4.84661Z" fill="#484B66"/>
<path d="M13.4488 4.23234L13.0214 0.00106812L3.47215 9.55036L2.79499 8.87324L1.44073 10.2275L4.8264 13.6132L6.18065 12.2589L5.50353 11.5818L13.4488 4.23234Z" fill="#484B66"/>
</svg>
