<svg width="16" height="17" viewBox="0 0 16 17" fill="none" xmlns="http://www.w3.org/2000/svg">
<g clip-path="url(#clip0_5_75)">
<path d="M8 0.5C12.4181 0.5 16 4.08192 16 8.5C16 12.9181 12.4179 16.5 8 16.5C3.58208 16.5 0 12.919 0 8.5C0 4.08096 3.58144 0.5 8 0.5Z" fill="#53AE94"/>
<path d="M8.98709 7.43402V6.24394H11.7085V4.43066H4.29797V6.24394H7.01973V7.43306C4.80773 7.53466 3.14453 7.97274 3.14453 8.49754C3.14453 9.02234 4.80853 9.46042 7.01973 9.56266V13.3747H8.98773V9.56235C11.1957 9.46042 12.8556 9.02266 12.8556 8.49834C12.8556 7.97402 11.1957 7.53626 8.98773 7.43434M8.98773 9.23946V9.2385C8.93221 9.24202 8.64693 9.25914 8.01173 9.25914C7.50389 9.25914 7.14661 9.24474 7.02069 9.23818V9.23978C5.06645 9.15322 3.60773 8.8129 3.60773 8.4057C3.60773 7.9985 5.06661 7.65866 7.02069 7.57194V8.90074C7.14869 8.90954 7.51477 8.93114 8.02005 8.93114C8.62693 8.93114 8.93205 8.90586 8.98805 8.90074V7.57194C10.9385 7.65882 12.3938 7.99946 12.3938 8.40522C12.3938 8.81098 10.9378 9.15178 8.98805 9.23866" fill="white"/>
</g>
<defs>
<clipPath id="clip0_5_75">
<rect width="16" height="16" fill="white" transform="translate(0 0.5)"/>
</clipPath>
</defs>
</svg>
