<svg width="16" height="17" viewBox="0 0 16 17" fill="none" xmlns="http://www.w3.org/2000/svg">
<path d="M10.6667 5.83333V3.50044C10.6667 2.94594 10.6667 2.6687 10.5499 2.49832C10.4478 2.34945 10.2898 2.24833 10.1118 2.21805C9.90819 2.1834 9.65646 2.29958 9.153 2.53195L3.23934 5.26133C2.79034 5.46856 2.56583 5.57218 2.4014 5.73288C2.25604 5.87495 2.14508 6.04837 2.077 6.23989C2 6.45653 2 6.70379 2 7.19831V10.5M11 10.1667H11.0067M2 7.96667L2 12.3667C2 13.1134 2 13.4868 2.14532 13.772C2.27316 14.0229 2.47713 14.2268 2.72801 14.3547C3.01323 14.5 3.3866 14.5 4.13333 14.5H11.8667C12.6134 14.5 12.9868 14.5 13.272 14.3547C13.5229 14.2268 13.7268 14.0229 13.8547 13.772C14 13.4868 14 13.1134 14 12.3667V7.96667C14 7.21993 14 6.84656 13.8547 6.56135C13.7268 6.31046 13.5229 6.10649 13.272 5.97866C12.9868 5.83333 12.6134 5.83333 11.8667 5.83333L4.13333 5.83333C3.3866 5.83333 3.01323 5.83333 2.72801 5.97866C2.47713 6.10649 2.27316 6.31046 2.14532 6.56135C2 6.84656 2 7.21993 2 7.96667ZM11.3333 10.1667C11.3333 10.3508 11.1841 10.5 11 10.5C10.8159 10.5 10.6667 10.3508 10.6667 10.1667C10.6667 9.98257 10.8159 9.83333 11 9.83333C11.1841 9.83333 11.3333 9.98257 11.3333 10.1667Z" stroke="white" stroke-width="1.66667" stroke-linecap="round" stroke-linejoin="round"/>
</svg>
